<svg width="512" height="512" viewBox="0 0 512 512" fill="none" xmlns="http://www.w3.org/2000/svg">
<path d="M498.279 140.674C493.545 116.475 469.894 82.4683 468.186 79.6605C428.567 14.6068 341.769 32.2692 260.968 32.2692C192.952 32.2692 112.155 32.9827 75.4196 57.9352C24.0346 92.8338 24.7712 143.376 21.1971 203.152C17.1275 271.215 20.325 379.815 63.6006 435.725C100.798 483.784 155.348 487.602 212.84 488.821C246.992 489.551 290.744 490.479 324.833 490.479C364.3 490.479 401.92 498.817 437.549 462.67C478.833 420.788 473.944 381.797 482.248 270.518C485.466 227.401 506.563 183.048 498.279 140.674Z" fill="#C4E9FA"/>
<path d="M397.431 78.63C397.431 78.63 292.405 56.9344 257.397 56.3067C225.115 55.7287 137.354 54.5428 118.354 73.8171C96.1765 96.3187 109.072 217.924 108.18 265.959C107.331 311.762 121.297 449.173 121.297 449.173L279.132 451.918L392.532 342.65C392.532 342.65 407.301 303.457 408.216 253.988C408.523 237.452 397.431 78.63 397.431 78.63Z" fill="white"/>
<path d="M274.59 347.678C256.304 367.583 279.129 451.921 279.129 451.921L376.013 346.38C376.013 346.38 292.864 327.782 274.59 347.678Z" fill="#87C9FF"/>
<path d="M262.629 119.379C247.768 103.989 192.452 103.113 177.063 117.975C163.453 131.115 162.519 180.022 175.659 193.632C190.52 209.021 245.836 209.897 261.226 195.036C274.832 181.895 275.77 132.988 262.629 119.379Z" fill="#FF5600"/>
<path d="M508.994 221.683C509.057 212.797 508.875 203.908 508.812 195.019C508.637 169.241 508.618 143.456 508.234 117.677C507.841 91.1624 507.537 66.1801 491.827 43.553C477.825 23.3868 455.231 7.50161 430.622 4.12241C403.687 0.426105 375.137 3.42874 348.018 3.31973C289.059 3.07859 230.136 0.115601 171.163 1.40386C144.229 1.99844 117.364 3.2867 90.4688 4.8227C66.9399 6.16711 44.3491 15.8786 27.7042 32.692C7.88153 52.7162 4.12576 76.4796 2.91678 103.431C1.61531 132.522 1.26847 161.749 1.45015 190.87C1.72431 235.358 3.20086 279.843 4.1654 324.321C4.79962 353.617 4.56509 382.91 4.4792 412.21C4.42635 429.951 7.02599 446.253 16.0636 461.983C28.8801 484.293 51.6955 501.558 76.9223 507.022C98.0001 511.587 121.096 508.925 142.422 508.75C163.787 508.578 184.984 509.731 206.313 510.576C234.892 511.713 263.389 510.461 291.929 508.974C321.384 507.442 350.717 507.891 380.188 508.244C403.406 508.522 428.392 509.793 450.332 500.885C474.726 490.982 492.874 469.953 500.554 444.921C508.4 419.358 505.793 389.797 506.536 363.332C507.854 316.139 508.651 268.899 508.994 221.683ZM491.206 309.919C490.608 336.886 489.409 363.824 488.095 390.762C486.886 415.506 487.08 440.564 471.149 461.091C457.447 478.746 437.047 486.532 415.199 486.965C358.602 488.088 301.981 487.351 245.39 488.798C196.334 490.05 146.551 491.503 97.5938 488.63C59.2533 486.38 27.4333 455.009 23.8493 416.646C18.7954 362.552 19.129 308.125 18.8581 253.84C18.7128 224.514 19.5981 195.515 21.0845 166.205C22.3464 141.322 22.016 116.31 22.5941 91.3969C23.1028 69.414 31.9687 50.1991 49.7268 36.7054C68.3471 22.5544 89.4283 21.0977 111.728 19.0794C140.79 16.4501 169.835 15.1023 198.983 17.0909C256.102 20.9887 313.806 19.9217 371.045 20.0935C396.493 20.1695 426.631 16.4104 449.586 29.435C470.003 41.0228 486.8 62.9661 488.349 86.9145C491.243 131.66 489.687 176.884 489.872 221.713C489.898 228.454 489.716 235.196 489.69 241.935C489.584 264.585 491.705 287.344 491.206 309.919Z" fill="black"/>
<path d="M387.482 70.4116C373.951 70.8939 360.379 71.2209 346.839 71.0062C331.201 70.7585 315.478 71.0623 299.943 69.1035C282.515 66.9036 265.404 65.7012 247.861 66.4874C224.005 67.5576 200.787 69.7873 176.855 68.5816C166.307 68.0498 155.76 67.4949 145.213 66.9267C139.773 66.6327 134.332 66.3387 128.892 66.0447C117.307 65.4171 119.907 83.2149 119.554 90.4192C118.566 110.595 120.178 130.61 119.927 150.772C119.689 169.799 118.619 188.816 117.691 207.816C116.61 229.964 114.543 252.634 116.554 274.752C118.632 297.631 116.396 319.445 114.724 342.224C112.729 369.43 113.403 396.889 113.998 424.144C114.173 432.171 113.016 442.008 114.965 449.751C115.329 459.664 144.582 454.851 151.674 454.782C174.922 454.55 198.25 454.983 221.488 455.753C239.58 456.351 257.671 456.909 275.737 458.068C285.385 458.689 292.124 448.809 298.757 442.695C303.322 438.49 307.887 434.282 312.452 430.077C325.52 418.037 338.359 405.745 351.314 393.583C361.888 383.657 372.465 373.73 383.039 363.804C387.904 359.236 399.287 352.124 401.18 345.114C403.046 338.201 401.101 329.414 401.054 322.134C401.008 314.844 400.959 307.554 400.912 300.26C400.833 287.84 401.041 275.43 401.253 263.013C401.642 240.379 401.742 217.798 401.487 195.165C401.048 156.325 406.211 117.707 406.138 78.7886C406.838 67.9408 394.336 70.1672 387.482 70.4116ZM358.585 364.158C334.422 388.694 310.751 413.921 285.537 437.383C287.093 409.108 289.614 380.591 289.432 352.286C289.415 349.716 288.55 348.685 291.13 348.665C294.245 348.642 297.363 348.619 300.478 348.596C305.565 348.56 310.655 348.52 315.742 348.48C322.045 348.431 328.288 348.698 334.574 349.125C347.773 350.02 360.933 347.278 374.153 348.398C368.947 353.637 363.764 358.896 358.585 364.158ZM388.363 112.389C387.68 131.898 384.826 151.344 384.588 170.83C384.373 188.518 386.993 206.042 387.359 223.704C387.729 241.373 385.863 258.857 385.308 276.49C384.585 295.969 384.132 315.57 384.433 335.069C377.113 333.969 369.713 335.106 362.347 335.03C353.343 334.957 344.341 334.696 335.34 334.475C326.322 334.201 317.338 334.359 308.323 334.524C301.469 334.65 282.825 334.435 280.837 335.017C273.606 337.137 275.684 344.351 275.628 350.614C275.479 367.804 273.15 384.737 273.236 401.966C273.306 416.183 273.378 430.4 273.448 444.618C268.826 443.997 264.179 443.557 259.544 443.055C236.63 440.571 213.577 439.052 190.56 437.938C178.794 437.37 167.001 436.931 155.225 436.759C151.096 436.7 132.304 437.948 132.195 435.917C131.954 431.355 131.693 426.8 131.551 422.232C130.58 391.066 130.804 359.83 132.724 328.697C134.468 300.395 129.648 273.045 129.932 244.832C130.223 215.767 131.69 186.755 133.041 157.722C134.21 132.582 136.552 107.728 136.783 82.5543C163.952 83.3272 191.785 88.8073 218.915 86.1515C245.119 83.5849 270.96 81.19 297.32 82.726C323.237 84.2356 349.177 85.2563 375.114 86.3794C379.435 86.5677 383.755 86.7527 388.073 86.941C389.748 87.0103 388.463 109.618 388.363 112.389Z" fill="black"/>
<path d="M333.804 222.158C326.514 221.904 319.201 221.967 311.907 221.901C294.641 221.742 277.379 223.559 260.119 222.849C233.518 222.195 206.845 219.638 180.247 219.565C176.432 219.499 172.653 220.325 171.299 224.474C169.766 229.178 173.439 233.868 178.279 233.868C189.252 233.868 200.268 234.671 211.232 235.084C239.828 236.161 268.341 237.099 296.96 236.613C309.688 236.399 322.418 236.574 335.145 236.63C337.283 236.64 339.509 236.831 341.643 236.66C347.427 236.676 350.829 229.805 347.272 225.227C344.332 221.435 338.006 222.307 333.804 222.158Z" fill="black"/>
<path d="M341.217 258.814C318.751 259.138 296.276 258.97 273.811 258.983C245.684 258.996 217.557 256.413 189.417 255.914C183.494 255.808 166.955 253.939 170.698 265.282C173.04 272.377 184.446 270.25 190.054 270.339C203.644 270.554 217.23 270.884 230.813 271.258C244.277 271.627 257.648 273.887 271.076 273.837C289.581 273.768 308.085 274.016 326.583 273.431C331.802 273.266 337.669 273.907 342.799 272.823C350.928 271.099 349.531 258.689 341.217 258.814Z" fill="black"/>
<path d="M341.372 295.226C330.544 294.149 319.894 294.053 309.027 294.456C295.123 294.971 281.217 294.06 267.29 294.691C240.197 295.916 213.521 293.006 186.48 292.273C182.801 292.174 178.044 291.351 174.457 292.58C169.522 294.271 168.032 300.772 171.735 304.448C174.979 307.666 180.862 306.493 184.994 306.596C191.27 306.751 197.53 306.979 203.802 307.316C231.533 308.809 259.198 309.995 286.964 308.594C294.763 308.201 302.509 307.226 310.335 307.534C317.252 307.808 324.165 308.465 331.082 308.822C335.053 309.027 341.27 310.526 344.801 307.976C349.96 304.26 347.708 295.86 341.372 295.226Z" fill="black"/>
<path d="M170.08 190.226C169.905 195.683 175.117 195.891 179.134 195.878C186.86 195.855 194.586 195.994 202.313 196.033C210.085 196.073 217.742 196.862 225.465 197.652C233.178 198.438 240.878 198.636 248.63 198.63C253.618 198.626 262.91 200.502 266.524 196.238C268.787 193.572 268.143 189.255 268.153 185.995C268.169 180.003 268.186 174.014 268.202 168.022C268.242 153.854 268.281 139.687 268.321 125.519C268.331 122.451 268.337 119.382 268.347 116.313C268.357 112.759 265.972 110.516 262.732 109.67C255.029 108.478 247.385 107.715 239.58 107.999C224.718 108.541 209.87 108.21 195.003 107.916C191.438 107.847 187.871 107.771 184.307 107.698C181.307 107.636 177.591 106.939 174.708 107.943C168.494 110.103 169.845 118.014 169.766 123.134C169.416 145.487 169.911 167.873 170.08 190.226ZM183.966 127.415C184.016 126.041 184.109 124.67 184.181 123.296C184.274 121.502 186.176 122.345 187.636 122.302C191.204 122.236 194.775 122.236 198.339 122.074C211.423 121.687 224.49 120.931 237.575 121.711C243.93 122.09 250.269 122.308 256.634 122.398C255.822 141.328 255.009 160.259 254.193 179.19C254.137 180.478 254.081 181.77 254.028 183.058C253.939 185.159 250.256 183.775 248.73 183.719C238.232 183.322 227.731 182.86 217.23 182.533C206.088 182.186 194.96 182.166 183.815 182.17L183.818 152.678C183.818 147.403 183.815 142.125 183.811 136.849C183.811 133.701 183.854 130.56 183.966 127.415Z" fill="black"/>
<g clip-path="url(#clip0_34_55)">
<mask id="mask0_34_55" style="mask-type:luminance" maskUnits="userSpaceOnUse" x="199" y="132" width="41" height="41">
<path d="M239.972 133.194L200.386 132.006L199.198 171.592L238.784 172.78L239.972 133.194Z" fill="white"/>
</mask>
<g mask="url(#mask0_34_55)">
<path fill-rule="evenodd" clip-rule="evenodd" d="M203.085 134.872C200.219 137.571 200.084 142.05 199.816 151.007L199.768 152.591C199.499 161.548 199.365 166.027 202.064 168.893C204.763 171.759 209.242 171.893 218.199 172.162L219.783 172.21C228.74 172.479 233.219 172.613 236.085 169.914C238.951 167.215 239.085 162.736 239.354 153.779L239.402 152.195C239.671 143.238 239.805 138.759 237.106 135.893C234.407 133.027 229.928 132.892 220.971 132.624L219.387 132.576C210.43 132.307 205.951 132.173 203.085 134.872ZM206.705 144.247C206.61 154.546 211.571 160.886 220.593 161.157L221.105 161.172L221.281 155.283C224.587 155.713 227.021 158.213 227.933 161.377L232.618 161.517C231.472 156.794 228.168 154.103 226.086 153.05C228.234 151.893 231.292 149.013 232.122 145.01L227.867 144.882C226.845 148.12 224.018 151.007 221.404 151.209L221.599 144.694L217.343 144.567L217.001 155.98C214.382 155.242 211.146 151.942 211.224 144.383L206.705 144.247Z" fill="black"/>
</g>
</g>
<defs>
<clipPath id="clip0_34_55">
<rect width="40" height="39.604" fill="white" transform="translate(200.188 132) rotate(1.71862)"/>
</clipPath>
</defs>
</svg>
